<?xml version="1.0" encoding="UTF-8"?>
<svg width="1206px" height="681px" viewBox="0 0 1206 681" version="1.1" xmlns="http://www.w3.org/2000/svg" xmlns:xlink="http://www.w3.org/1999/xlink">
    <!-- Generator: Sketch 41.2 (35397) - http://www.bohemiancoding.com/sketch -->
    <title>Americas</title>
    <desc>Created with Sketch.</desc>
    <defs></defs>
    <g id="Page-1" stroke="none" stroke-width="1" fill="none" fill-rule="evenodd">
        <g id="Americas" transform="translate(4.000000, -7.000000)">
            <path d="M7,369 L378.5,672.5 C378.5,672.5 398,686 407,683 C416,680 407,652 407,652 L378.5,563 C378.5,563 374,543 386,521 C398,499 419,487 419,487 L510,435 C510,435 521.032996,426.589847 528,416 C534.967004,405.410153 534,405 538,394 C542,383 547.411508,378.094355 554,372 C560.588492,365.905645 582,358 582,358 C582,358 598.090665,352.382136 603,346 C607.909335,339.617864 612,319 612,319 C612,319 610,287 637,265 C673,235 700,246 700,246 L750,272 C750,272 766.670759,280.686515 772,281 C777.329241,281.313485 787,276 795,270 C803,264 823,245 823,245 C823,245 838,219 861,219 C874.639419,219 888,228 895,240 C902,252 905,255 921,253 C937,251 1022,235 1032,230 C1042,225 1155,95 1155,95 L1191,45 C1191,45 1201,30 1196,25 C1191,20 1159,32 1159,32 C1159,32 1072,65 861,106 C650,147 448,154 448,154 C448,154 433.559712,155.192518 432,158 C430.440288,160.807482 438,172 438,172 L498,261 C498,261 508,272 504,283 C500,294 486,291 486,291 C486,291 468.508144,291.211196 459,289 C449.491856,286.788804 446.237892,284.237892 443,281 C439.762108,277.762108 432,261 432,261 C432,261 429.003789,249.505684 422,239 C414.996211,228.494316 404,219 404,219 C404,219 383,205 361,211 C351,214 361,230 361,230 L403,305 C403,305 419.192175,334.217303 412,364 C404.807825,393.782697 390.768802,399.873856 370,411 C314,441 258,388 258,388 L197,301 C197,301 183.57919,284.597049 177,282 C170.42081,279.402951 156,285 156,285 L14,339 C14,339 3,344 1,354 C-1,364 7,369 7,369 Z" id="Line" stroke="#505050" stroke-width="8" stroke-linecap="square"></path>
            <path d="M148.168239,501.629416 L168.911288,478.591927" id="Line" stroke="#2AB4A5" stroke-width="10" stroke-linecap="square"></path>
            <text id="Sector-1" font-family="Roboto-Light, Roboto" font-size="36" font-weight="300" letter-spacing="1.28571451" fill="#2AB4A5">
                <tspan x="480" y="512">Sector 1</tspan>
            </text>
            <text id="Sector-2" font-family="Roboto-Light, Roboto" font-size="36" font-weight="300" letter-spacing="1.28571451" fill="#2AB4A5">
                <tspan x="900" y="33">Sector 2</tspan>
            </text>
            <text id="Sector-3" font-family="Roboto-Light, Roboto" font-size="36" font-weight="300" letter-spacing="1.28571451" fill="#2AB4A5">
                <tspan x="186" y="246">Sector 3</tspan>
            </text>
        </g>
    </g>
</svg>