<?xml version="1.0" encoding="UTF-8"?>
<svg width="981px" height="605px" viewBox="0 0 981 605" version="1.1" xmlns="http://www.w3.org/2000/svg" xmlns:xlink="http://www.w3.org/1999/xlink">
    <!-- Generator: Sketch 41.2 (35397) - http://www.bohemiancoding.com/sketch -->
    <title>Bahrain</title>
    <desc>Created with Sketch.</desc>
    <defs></defs>
    <g id="Page-1" stroke="none" stroke-width="1" fill="none" fill-rule="evenodd">
        <g id="Bahrain" transform="translate(-1.000000, 4.000000)">
            <path d="M851,578.75 L119,578.75 C119,578.75 95,576.75192 95,563 C95,549.24808 126,529 126,529 C126,529 167,495 167,485 C167,475 144,417 142,400 C140,383 200,13 200,13 C200,13 201,5 206,1 C211,-3 234,13 234,13 C234,13 251,23 258,31 C265,39 328,109 328,109 C328,109 337.105098,120.312655 350,128 C362.894902,135.687345 377,138 380,140 C383,142 401.955889,152.154678 409,166 C416.044111,179.845322 407,204 407,204 L401,220 C401,220 390.224007,240.560017 396,255 C401.775993,269.439983 420,282 420,282 L526,358 C526,358 538,368 533,378 C528,388 516,391 505,390 C494,389 329.525061,365.265946 315,364 C300.474939,362.734054 295.608352,366.054776 287,371 C278.391648,375.945224 273.570202,379.41328 265,390 C256.429798,400.58672 246,416 249,426 C252,436 284,439 284,439 C284,439 324,444 341,444 C358,444 725,447 740,444 C755,441 768.235581,434.802637 774,409 C779.764419,383.197363 781.527447,380.79117 761,350 C740.472553,319.20883 698,295 698,295 C698,295 667.685098,287.720385 642,276 C616.314902,264.279615 595,249 595,249 C595,249 579.593415,238.24349 576,220 C572.406585,201.75651 581,180 581,180 C581,180 625.656115,78.7864814 633,67 C640.343885,55.2135186 653.961729,50.6430617 662,50 C670.038271,49.3569383 683,63 683,63 C683,63 710,88 729,117 C748,146 897,444 897,444 C897,444 927.630136,499.520545 932,517 C936.369864,534.479455 930.572481,534.002383 923,548 C915.427519,561.997617 903.775033,568.265176 897,573 C890.224967,577.734824 892.275443,577.09057 879,578.75 C865.724557,580.40943 851,578.75 851,578.75 Z" id="Line" stroke="#505050" stroke-width="8" stroke-linecap="square"></path>
            <path d="M671,564.5 L671,595.5" id="Line" stroke="#2AB4A5" stroke-width="10" stroke-linecap="square"></path>
            <text id="Sector-1" font-family="Roboto-Light, Roboto" font-size="36" font-weight="300" letter-spacing="1.28571451" fill="#2AB4A5">
                <tspan x="0" y="317">Sector 1</tspan>
            </text>
            <text id="Sector-2" font-family="Roboto-Light, Roboto" font-size="36" font-weight="300" letter-spacing="1.28571451" fill="#2AB4A5">
                <tspan x="496" y="323">Sector 2</tspan>
            </text>
            <text id="Sector-3" font-family="Roboto-Light, Roboto" font-size="36" font-weight="300" letter-spacing="1.28571451" fill="#2AB4A5">
                <tspan x="845" y="299">Sector 3</tspan>
            </text>
        </g>
    </g>
</svg>