<?xml version="1.0" encoding="UTF-8"?>
<svg width="1203px" height="580px" viewBox="0 0 1203 580" version="1.1" xmlns="http://www.w3.org/2000/svg" xmlns:xlink="http://www.w3.org/1999/xlink">
    <!-- Generator: Sketch 41.2 (35397) - http://www.bohemiancoding.com/sketch -->
    <title>BAK</title>
    <desc>Created with Sketch.</desc>
    <defs></defs>
    <g id="Page-1" stroke="none" stroke-width="1" fill="none" fill-rule="evenodd">
        <g id="BAK" transform="translate(4.000000, -7.000000)">
            <path d="M608,312 L1172,249 C1172,249 1190.20464,247.41601 1193,242 C1195.79536,236.58399 1193,218 1193,218 L1174,73 C1174,73 1172.44505,63.3191551 1168,61 C1163.55495,58.6808449 1151,61 1151,61 C1151,61 1026.18638,70.7621551 964,78 C901.813619,85.2378449 778.309036,101.794982 757,105 C735.690964,108.205018 722.984622,107.167022 718,115 C713.015378,122.832978 718,148 718,148 L724,208 C724,208 726.161144,222.974399 724,226 C721.838856,229.025601 704.965511,227.586208 676,232 C647.034489,236.413792 646.624415,235.972855 619,242 C591.375585,248.027145 570,255 570,255 C570,255 555,259 552,265 C549,271 554,286 552,292 C550,298 519,309 519,309 L382,362 C382,362 366,370 360,367 C354,364 354,345 354,345 L352,281 C352,281 351.957394,273.237021 350,271 C348.042606,268.762979 343.463861,270.463861 338,265 C332.536139,259.536139 336.045471,258.582501 330,255 C323.954529,251.417499 315,255 311,249 C307,243 307,226 307,226 C307,226 303.607634,215.352805 300,213 C296.392366,210.647195 284,211 284,211 L201,218 L123,232 C123,232 105.744168,237.451607 99,242 C92.2558316,246.548393 76,265 76,265 L40,319 C40,319 33.8116751,331.235579 32,337 C30.1883249,342.764421 29,354 29,354 L8,438 C8,438 0.0580185225,450.724904 1,456 C1.94198148,461.275096 13,466 13,466 L119,571 C119,571 131.713287,583 138,583 C144.286713,583 154,571 154,571 L196,527 C196,527 206.084564,513.03981 212,509 C217.915436,504.96019 236,497 236,497 L311,461 C311,461 322.948387,454.677419 328,450 C333.051613,445.322581 338,436 338,436 L357,403 C357,403 363.573565,391.836244 368,388 C372.426435,384.163756 387,377 387,377 L530,322 L568,317.5 L608,312 Z" id="Line" stroke="#505050" stroke-width="8" stroke-linecap="square"></path>
            <path d="M1007,282.095541 L1020.10117,254" id="Line" stroke="#2AB4A5" stroke-width="10" stroke-linecap="square" transform="translate(1013.550583, 268.047771) rotate(-32.000000) translate(-1013.550583, -268.047771) "></path>
            <text id="Sector-1" font-family="Roboto-Light, Roboto" font-size="36" font-weight="300" letter-spacing="1.28571451" fill="#2AB4A5">
                <tspan x="866" y="33">Sector 1</tspan>
            </text>
            <text id="Sector-2" font-family="Roboto-Light, Roboto" font-size="36" font-weight="300" letter-spacing="1.28571451" fill="#2AB4A5">
                <tspan x="104" y="312">Sector 2</tspan>
            </text>
            <text id="Sector-3" font-family="Roboto-Light, Roboto" font-size="36" font-weight="300" letter-spacing="1.28571451" fill="#2AB4A5">
                <tspan x="498" y="437">Sector 3</tspan>
            </text>
        </g>
    </g>
</svg>