<?xml version="1.0" encoding="UTF-8"?>
<svg width="1319px" height="374px" viewBox="0 0 1319 374" version="1.1" xmlns="http://www.w3.org/2000/svg" xmlns:xlink="http://www.w3.org/1999/xlink">
    <!-- Generator: Sketch 41.2 (35397) - http://www.bohemiancoding.com/sketch -->
    <title>catalunya</title>
    <desc>Created with Sketch.</desc>
    <defs></defs>
    <g id="Page-1" stroke="none" stroke-width="1" fill="none" fill-rule="evenodd">
        <g id="catalunya" transform="translate(-1.000000, 4.000000)">
            <path d="M1076.5,349 L943.5,349 L243.999285,349 C243.999285,349 216.239565,348.578681 207,343 C197.760435,337.421319 193,325 191,317 C189,309 189,290 183,275 C177,260 144,245 144,245 C144,245 113.147575,225.363921 99,215 C84.852425,204.636079 62,187.5 55,181 C48,174.5 43.79106,170.844134 36,158 C28.20894,145.155866 24.009594,125.919257 25,110 C26.9381743,78.8468212 44,52 63,35 C70.8185328,28.0044707 96.3582171,13.0102558 118,7 C139.641783,0.989744192 177,-4.54747351e-13 177,-4.54747351e-13 L358.002762,-4.54747351e-13 C358.002762,-4.54747351e-13 403.472015,7.16192923 414,17 C424.527985,26.8380708 426,43 419,57 C415.847951,63.304099 406.894493,91.1719002 389,104 C371.105507,116.8281 336,120 336,120 L220,122 C220,122 205.023868,123.93812 191,130 C179.644997,134.908251 169.128775,143.368205 166,149 C162.294616,155.66969 161.27699,167.96919 166,178 C170.72301,188.03081 180,194 180,194 L295,258 C295,258 317.865869,271.385022 329,275 C340.134131,278.614978 380,281 380,281 L445,279 C445,279 462.640752,278.54396 469,273 C475.359248,267.45604 481,255 481,247 C481,239 479,229 479,215 C479,201 477.801585,198.271478 481,190 C484.198415,181.728522 496,166 496,166 C496,166 574.558909,57.4584186 584,46 C593.441091,34.5415814 602.651537,26.6257293 613,24 C623.348463,21.3742707 634,24 651,29 C654.618137,30.0641578 676.800085,38.5804009 705,55 C733.199915,71.4195991 1032,258 1032,258 C1032,258 1059,275 1076.5,267 C1094,259 1084,231 1084,231 C1084,231 1058.75555,164.051837 1055,155 C1051.24445,145.948163 1045,137 1045,137 L1028,128 L969,105 C969,105 933,83 953,49 C973,15 1006,22 1018,26 C1030,30 1115,69 1115,69 C1115,69 1130.21103,76.0694459 1134,82 C1137.78897,87.9305541 1138,105 1138,105 L1141,181 C1141,181 1140.17305,195.840271 1144,200 C1147.82695,204.159729 1166,205 1166,205 L1182,207 C1182,207 1192.83881,207.173822 1195,210 C1197.16119,212.826178 1195,224 1195,224 C1195,224 1189.86917,297.517331 1185,312 C1180.13083,326.482669 1174,331 1156,340 C1138,349 1115,349 1095,349 C1075,349 1076.5,349 1076.5,349 Z" id="Line" stroke="#505050" stroke-width="8" stroke-linecap="square"></path>
            <text id="Sector-1" font-family="Roboto-Light, Roboto" font-size="36" font-weight="300" letter-spacing="1.28571451" fill="#2AB4A5">
                <tspan x="0" y="312">Sector 1</tspan>
            </text>
            <text id="Sector-2" font-family="Roboto-Light, Roboto" font-size="36" font-weight="300" letter-spacing="1.28571451" fill="#2AB4A5">
                <tspan x="304" y="222">Sector 2</tspan>
            </text>
            <text id="Sector-3" font-family="Roboto-Light, Roboto" font-size="36" font-weight="300" letter-spacing="1.28571451" fill="#2AB4A5">
                <tspan x="1183" y="170">Sector 3</tspan>
            </text>
            <path d="M711.301312,364.065236 L711.301312,333.065236" id="Line" stroke="#2AB4A5" stroke-width="10" stroke-linecap="square"></path>
        </g>
    </g>
</svg>