<?xml version="1.0" encoding="UTF-8"?>
<svg width="1106px" height="731px" viewBox="0 0 1106 731" version="1.1" xmlns="http://www.w3.org/2000/svg" xmlns:xlink="http://www.w3.org/1999/xlink">
    <!-- Generator: Sketch 41.2 (35397) - http://www.bohemiancoding.com/sketch -->
    <title>marina_bay</title>
    <desc>Created with Sketch.</desc>
    <defs></defs>
    <g id="Page-1" stroke="none" stroke-width="1" fill="none" fill-rule="evenodd">
        <g id="marina_bay" transform="translate(4.000000, 4.000000)">
            <path d="M1092,428 L1043.5,78.5 C1043.5,78.5 1042,60 1037,58 C1024,54 1005.85809,52.0730765 988,40 C970.141908,27.9269235 968,12 968,12 C968,12 965,0 953,0 C941,9.63900968e-16 938,10 935,16 C932,22 929.919762,33.1395606 928,42 C926.080238,50.8604394 925,60 924,75 C923.615472,80.7679222 923.141449,96.2564116 927,111 C930.858551,125.743588 931.095274,122.056801 944,162 C956.904726,201.943199 964.908777,217.368987 970,244 C975.091223,270.631013 975,284 969,302 C963,320 927,319 927,319 L680,310 C680,310 631.140297,306.076814 611,300 C590.859703,293.923186 557,272 557,272 L405,183 C405,183 387.638703,172.978661 381,174 C374.361297,175.021339 366,189 366,189 L312,277 C312,277 304,295 288,295 C272,295 257,277 257,277 L195,221 C195,221 183,209 175,209 C167,209 157,226 157,226 L7,471 C7,471 0.115544259,485.101245 1,492 C1.88445574,498.898755 12,510 12,510 L38,531 C38,531 46.6952188,536.536612 52,538 C57.3047812,539.463388 63,538 67,539 C71,540 75.6320696,542.617242 78,546 C80.3679304,549.382758 82,559 82,559 L79,594 C79,594 78.9060811,605.939696 81,611 C83.0939189,616.060304 94,625 94,625 C94,625 150,665 160,674 C170,683 174,692 174,692 L181,710 C181,710 187.683529,723 195,723 C202.316471,723 209,708 212,698 C215,688 246,480 246,480 C246,480 256.539222,433.872273 263,415 C269.460778,396.127727 283,366 283,366 C283,366 293,347 305,345 C317,343 332,357 332,357 L439,427 C439,427 453.790182,435.930061 460,438 C466.209818,440.069939 485,443 485,443 L508,445 C508,445 518.758702,445.758702 522,449 C525.241298,452.241298 527,463 527,463 L530,481 C530,481 531.932748,494.932748 537,500 C542.067252,505.067252 568,509 568,509 L665,516 C665,516 676.650692,515.551854 680,513 C683.349308,510.448146 686,500 686,500 L701,463 C701,463 704.417801,451.641841 708,450 C711.582199,448.358159 725,452 725,452 L804,466 C804,466 815.114437,468.60522 818,472 C820.885563,475.39478 823,488 823,488 L827,503 C827,503 828,511 835,515 C842,519 870,523 870,523 L1022,530 C1022,530 1035,532 1041,530 C1047,528 1060,516 1060,516 L1088,486 C1088,486 1096.08165,473.969245 1097,468 C1097.91835,462.030755 1095,454 1094,447 C1093,440 1092,428 1092,428 Z" id="Line" stroke="#505050" stroke-width="8" stroke-linecap="square"></path>
            <path d="M1061.0836,309.15936 L1091.85253,305.38141" id="Line" stroke="#2AB4A5" stroke-width="10" stroke-linecap="square"></path>
            <text id="Sector-1" font-family="Roboto-Light, Roboto" font-size="36" font-weight="300" letter-spacing="1.28571451" fill="#2AB4A5">
                <tspan x="690" y="275">Sector 1</tspan>
            </text>
            <text id="Sector-2" font-family="Roboto-Light, Roboto" font-size="36" font-weight="300" letter-spacing="1.28571451" fill="#2AB4A5">
                <tspan x="67" y="434">Sector 2</tspan>
            </text>
            <text id="Sector-3" font-family="Roboto-Light, Roboto" font-size="36" font-weight="300" letter-spacing="1.28571451" fill="#2AB4A5">
                <tspan x="690" y="578">Sector 3</tspan>
            </text>
        </g>
    </g>
</svg>