<?xml version="1.0" encoding="UTF-8"?>
<svg width="1286px" height="520px" viewBox="0 0 1286 520" version="1.1" xmlns="http://www.w3.org/2000/svg" xmlns:xlink="http://www.w3.org/1999/xlink">
    <!-- Generator: Sketch 41.2 (35397) - http://www.bohemiancoding.com/sketch -->
    <title>monaco</title>
    <desc>Created with Sketch.</desc>
    <defs></defs>
    <g id="Page-1" stroke="none" stroke-width="1" fill="none" fill-rule="evenodd">
        <g id="monaco" transform="translate(-1.000000, 4.000000)">
            <path d="M169.5,257.5 C174,250 186.417202,217.673714 249.5,151.5 C312.582798,85.3262855 381.398954,32.9305901 394,22 C406.601046,11.0694099 413.678509,-1.13062644 423,1 C432.321491,3.13062644 444,22 456,32 C468,42 675,168 675,168 C675,168 689.493316,179.566091 697,183 C704.506684,186.433909 731.050089,193.157193 772,216 C812.949911,238.842807 818,248 844,265 C870,282 891.854428,294.880702 913,288 C921.824501,285.128535 940.727109,277.567569 951,265 C961.272891,252.432431 964.295748,246.29844 970,224 C975.704252,201.70156 970.321782,192.869343 973,179 C975.678218,165.130657 977.683236,155.933033 984,149 C990.316764,142.066967 1000,136 1014,134 C1028,132 1175.29186,104.887998 1191,103 C1206.70814,101.112002 1218.30584,103.962504 1222,109 C1225.69416,114.037496 1221.11459,120.173711 1213,133 C1204.88541,145.826289 1197,149 1191,158 C1185,167 1166.91662,194.324193 1162,212 C1159.50232,220.979438 1157.06998,229.579541 1158,236 C1158.93002,242.420459 1163.07746,246.374774 1166,247.877794 C1169.47925,249.667121 1174.70096,249.351666 1181,245 C1187.29904,240.648334 1189.93234,236.421196 1197,230 C1214.05975,214.500667 1214.97243,204.759854 1219,200 C1223.02757,195.240146 1226.65332,191.478097 1230,191 C1233.34668,190.521903 1232.08209,190.372422 1246,197 C1259.91791,203.627578 1263.32852,204.203436 1272,211 C1280.67148,217.796564 1283.34843,220.947768 1283,226 C1282.65157,231.052232 1279,233 1270,240 C1261,247 1148.45773,327.427286 1106,347 C1063.54227,366.572714 1026.95308,371.877257 988,370 C949.046924,368.122743 939.475896,369.742593 857,335 C774.524104,300.257407 729.365564,262.888604 715,255 C700.634436,247.111396 694.753827,241.509468 682,242 C669.246173,242.490532 663,257 663,257 C663,257 659.516335,264.586056 650,263 C640.483665,261.413944 634.156364,261.34836 622,247.877794 C609.843636,234.407228 618.850951,233.205226 613,222 C607.149049,210.794774 601,204 597,200 C593,196 460,96 460,96 C460,96 440.52985,84.8235213 431,85 C421.47015,85.1764787 403,100 403,100 L336,156 C336,156 328.49289,162.24171 327,168 C325.50711,173.75829 329,183 329,183 L331,194 C331,194 331.678183,201.269994 331,205 C330.321817,208.730006 327,216 327,216 L275,277 C275,277 267.618517,286.891556 263,288 C258.381483,289.108444 250,283 250,283 L241,278 C241,278 230.639609,278.573594 227,281 C223.360391,283.426406 217,294 217,294 C217,294 209.479216,315.422013 207,326 C204.520784,336.577987 202,358 202,358 C202,358 199.550935,395.331745 202,413 C204.449065,430.668255 216,459 216,459 C216,459 225.804543,472.832054 227,485 C228.195457,497.167946 220.768294,500.726479 219,503 C216.825531,505.795746 207.204724,505.698091 200,503 C192.795276,500.301909 177,489 177,489 L115,443 C115,443 102,432 102,422 C102,412 109.713473,415.32492 118,404 C126.286527,392.67508 132,381 132,381 C132,381 135.216782,341.240563 143,315 C150.783218,288.759437 156.733253,279.748601 158,277 C159.266747,274.251399 165,265 169.5,257.5 Z" id="Line" stroke="#505050" stroke-width="8" stroke-linecap="square"></path>
            <text id="Sector-1" font-family="Roboto-Light, Roboto" font-size="36" font-weight="300" letter-spacing="1.28571451" fill="#2AB4A5">
                <tspan x="550" y="50">Sector 1</tspan>
            </text>
            <text id="Sector-2" font-family="Roboto-Light, Roboto" font-size="36" font-weight="300" letter-spacing="1.28571451" fill="#2AB4A5">
                <tspan x="694" y="402">Sector 2</tspan>
            </text>
            <text id="Sector-3" font-family="Roboto-Light, Roboto" font-size="36" font-weight="300" letter-spacing="1.28571451" fill="#2AB4A5">
                <tspan x="0" y="515">Sector 3</tspan>
            </text>
            <path d="M252.813708,162.813708 L252.813708,131.813708" id="Line" stroke="#2AB4A5" stroke-width="10" stroke-linecap="square" transform="translate(253.313708, 147.313708) rotate(-45.000000) translate(-253.313708, -147.313708) "></path>
        </g>
    </g>
</svg>