<?xml version="1.0" encoding="UTF-8"?>
<svg width="1114px" height="706px" viewBox="0 0 1114 706" version="1.1" xmlns="http://www.w3.org/2000/svg" xmlns:xlink="http://www.w3.org/1999/xlink">
    <!-- Generator: Sketch 41.2 (35397) - http://www.bohemiancoding.com/sketch -->
    <title>rodriquez</title>
    <desc>Created with Sketch.</desc>
    <defs></defs>
    <g id="Page-1" stroke="none" stroke-width="1" fill="none" fill-rule="evenodd">
        <g id="rodriquez" transform="translate(4.000000, 5.000000)">
            <path d="M107,19 L1009.5,13.5 C1009.5,13.5 1042.72447,15.9282463 1056,22 C1069.27553,28.0717537 1074,43 1074,43 L1072,75 C1072,75 1071.43707,85.5021433 1077,93 C1082.56293,100.497857 1093,106 1093,106 C1093,106 1102.90125,114.753133 1105,120 C1107.09875,125.246867 1105,136 1105,136 C1105,136 1094.8509,194.085496 1081,227 C1067.1491,259.914504 919,578 919,578 C919,578 913.541985,590.327657 916,596 C918.458015,601.672343 932,608 932,608 L946,614 C946,614 957.429708,619.681698 959,624 C960.570292,628.318302 954,636 954,636 L905,688 C905,688 895.655669,698.59192 885,696 C874.344331,693.40808 868,679 868,679 L871,466 C871,466 868.004387,450.435047 865,446 C861.995613,441.564953 850,435 850,435 L818,421 C818,421 804.913998,414.323497 800,409 C795.086002,403.676503 770,369 770,369 C770,369 760.921023,355.767924 755,352 C749.078977,348.232076 737,348 737,348 L659,349 C659,349 633.689014,346.010314 625,342 C616.310986,337.989686 607,325 607,325 L595,297 C595,297 584.541045,281.726186 579,277 C573.458955,272.273814 561,268 561,268 C561,268 478.869149,239.013301 429,234 C379.130851,228.986699 183,230 183,230 C183,230 169.048151,227.193301 166,224 C162.951849,220.806699 161,202 161,202 L146,130 C146,130 142,99 127,99 C119.532113,99 112,115 112,115 C112,115 108.208349,124.186585 105,126 C101.791651,127.813415 89,128 89,128 L3,126 C3,126 -11,92 25,50 C61,8 107,19 107,19 Z" id="Line" stroke="#505050" stroke-width="8" stroke-linecap="square"></path>
            <path d="M513.539763,31.6106714 L513.539763,0.610671411" id="Line" stroke="#2AB4A5" stroke-width="10" stroke-linecap="square"></path>
            <text id="Sector-1" font-family="Roboto-Light, Roboto" font-size="36" font-weight="300" letter-spacing="1.28571451" fill="#2AB4A5">
                <tspan x="903" y="103">Sector 1</tspan>
            </text>
            <text id="Sector-2" font-family="Roboto-Light, Roboto" font-size="36" font-weight="300" letter-spacing="1.28571451" fill="#2AB4A5">
                <tspan x="591" y="410">Sector 2</tspan>
            </text>
            <text id="Sector-3" font-family="Roboto-Light, Roboto" font-size="36" font-weight="300" letter-spacing="1.28571451" fill="#2AB4A5">
                <tspan x="181" y="145">Sector 3</tspan>
            </text>
        </g>
    </g>
</svg>