<?xml version="1.0" encoding="UTF-8"?>
<svg width="1156px" height="744px" viewBox="0 0 1156 744" version="1.1" xmlns="http://www.w3.org/2000/svg" xmlns:xlink="http://www.w3.org/1999/xlink">
    <!-- Generator: Sketch 41.2 (35397) - http://www.bohemiancoding.com/sketch -->
    <title>shanghai</title>
    <desc>Created with Sketch.</desc>
    <defs></defs>
    <g id="Page-1" stroke="none" stroke-width="1" fill="none" fill-rule="evenodd">
        <g id="shanghai" transform="translate(4.000000, -7.000000)">
            <path d="M1081.5,681 L28.5,681 C28.5,681 0,681 0,664 C1.83124141e-15,647 38,635 38,635 L64,626 L274,623 C274,623 299.190686,624.628173 308,619 C316.809314,613.371827 321,600 321,600 C321,600 504,104 518,84 C532,64 532.442209,62.4750478 549,50 C565.557791,37.5249522 565.541304,34.0917391 591,29 C616.458696,23.9082609 624.372132,19.4847303 649,30 C673.627868,40.5152697 675.207056,54.2188169 680,67 C684.792944,79.7811831 675.161402,94.2364534 668,101 C660.838598,107.763547 644,101 644,101 L623,87 C623,87 609.607698,79.98632 601,87 C592.392302,94.01368 596,109 596,109 C596,109 615.8968,131.968567 623,137 C630.1032,142.031433 637.571584,143 644,143 C650.428416,143 673,137 673,137 L830,96 C830,96 853.592056,89.7108629 866,91 C878.407944,92.2891371 907,104 907,104 L1061,171 C1061,171 1077.18668,182.560054 1079,188 C1080.81332,193.439946 1072,204 1072,204 L1043,221 C1043,221 1027.06477,228.695239 1019,228 C1010.93523,227.304761 977,217 977,217 L839,171 C839,171 823.668081,163.39552 806,163 C793.081061,162.710795 778.43514,164.125524 770,166 C750.02887,170.438029 734,176 718,193 C702,210 695.924848,223.981329 691,246 C686.075152,268.018671 687,297 694,312 C701,327 719.659803,348.518333 729,367 C738.340197,385.481667 742.557885,390.088813 741,405 C739.442115,419.911187 725,434 718,440 C711,446 571.809291,503.898837 555,513 C538.190709,522.101163 537.395549,523.634216 534,538 C530.604451,552.365784 539.999875,565.692151 549,577 C558.000125,588.307849 591,588 591,588 C591,588 1021.61591,602 1038,602 C1054.38409,602 1055.65193,597.166897 1057,588 C1058.34807,578.833103 1046,571 1043,568 C1041.62336,566.623363 1033.38957,548.885925 1038,538 C1042.61043,527.114075 1062,519 1062,519 C1062,519 1096.39011,518.575503 1108,528 C1113.38394,532.370494 1127.13419,542.077943 1135,555 C1142.86581,567.922057 1147,585 1147,588 C1147,589.44716 1148.50414,608.749689 1142,626 C1135.49586,643.250311 1120,661 1120,661 L1097,676 L1081.5,681 Z" id="Line" stroke="#505050" stroke-width="8" stroke-linecap="square"></path>
            <path d="M444.130471,310.602624 L415,300" id="Line" stroke="#2AB4A5" stroke-width="10" stroke-linecap="square"></path>
            <text id="Sector-2" font-family="Roboto-Light, Roboto" font-size="36" font-weight="300" letter-spacing="1.28571451" fill="#2AB4A5">
                <tspan x="779" y="411">Sector 2</tspan>
            </text>
            <text id="Sector-1" font-family="Roboto-Light, Roboto" font-size="36" font-weight="300" letter-spacing="1.28571451" fill="#2AB4A5">
                <tspan x="379" y="33">Sector 1</tspan>
            </text>
            <text id="Sector-3" font-family="Roboto-Light, Roboto" font-size="36" font-weight="300" letter-spacing="1.28571451" fill="#2AB4A5">
                <tspan x="658" y="750">Sector 3</tspan>
            </text>
        </g>
    </g>
</svg>