<?xml version="1.0" encoding="UTF-8"?>
<svg width="1309px" height="621px" viewBox="0 0 1309 621" version="1.1" xmlns="http://www.w3.org/2000/svg" xmlns:xlink="http://www.w3.org/1999/xlink">
    <!-- Generator: Sketch 41.2 (35397) - http://www.bohemiancoding.com/sketch -->
    <title>silverstone</title>
    <desc>Created with Sketch.</desc>
    <defs></defs>
    <g id="Page-1" stroke="none" stroke-width="1" fill="none" fill-rule="evenodd">
        <g id="silverstone" transform="translate(4.000000, 3.000000)">
            <path d="M264.5,17.5 L448.5,115.5 C448.5,115.5 498.008247,137.588577 516,150 C533.991753,162.411423 541.053919,169.857969 547,184 C552.946081,198.142031 553.451928,218.436601 554,226 C554.548072,233.563399 554,242 552,257 C550,272 549,294 567,322 C585,350 621,376 621,376 L667,400 C667,400 679,406 679,414 C679,422 663,429 663,429 L595,461 C595,461 582,466 584,479 C586,492 605,495 605,495 C605,495 631.839165,496.510358 648,495 C664.160835,493.489642 695.106532,486.969562 709,483 C722.893468,479.030438 728.641784,474.4499 735,469 C741.358216,463.5501 747,456 758,441 C762.723614,434.558708 796.739194,381.123935 829,322 C861.260806,262.876065 907,177 914,153 C921,129 912,101 912,101 C912,101 910.121187,89.1595771 906,86 C901.878813,82.8404229 876,81 876,81 C876,81 848,83 842,81 C836,79 806,65 827,26 C848,-13 899,11 899,11 C899,11 930.31239,22.8918952 948,30 C965.68761,37.1081048 1001,54 1001,54 C1001,54 1031.58038,74.1744218 1041,88 C1050.41962,101.825578 1063,145 1063,145 L1122,379 C1122,379 1130.52284,404.55076 1127,416 C1123.47716,427.44924 1101,446 1101,446 C1101,446 1053.42579,475.738278 1029,483 C1016.35603,486.759017 966.967481,498.662517 922,508 C877.032519,517.337483 842,523 842,523 C842,523 820.21757,527.498232 810,533 C799.78243,538.501768 777,558 777,558 C777,558 771,568 754,571 C737,574 714,568 714,568 L689,562 C689,562 677,560 663,562 C649,564 632,577 632,577 L614,598 C614,598 606,614 579,614 C552,614 534,593 534,593 C534,593 518,572 513,562 C508,552 500.406205,547.639889 494,544 C487.593795,540.360111 458,530 458,530 L36,388 C36,388 5,384 1,359 C-3,334 36,303 36,303 C36,303 53.8632729,285.407504 61,276 C64.6419406,271.19926 89.6569127,229.243664 116,193 C142.343087,156.756336 168,129 168,129 C168,129 182,113 180,102 C178,91 162,86 162,86 C162,86 141,81 138,64 C135,47 151,30 151,30 C151,30 155.159536,20.054473 171,12 C186.840464,3.94552697 204.44751,1.17120576 219,1 C233.55249,0.828794237 264.5,17.5 264.5,17.5 Z" id="Line" stroke="#505050" stroke-width="8" stroke-linecap="square"></path>
            <path d="M319.017205,65.5731607 L334.517205,38.7263731" id="Line" stroke="#2AB4A5" stroke-width="10" stroke-linecap="square"></path>
            <text id="Sector-1" font-family="Roboto-Light, Roboto" font-size="36" font-weight="300" letter-spacing="1.28571451" fill="#2AB4A5">
                <tspan x="594" y="298">Sector 1</tspan>
            </text>
            <text id="Sector-3" font-family="Roboto-Light, Roboto" font-size="36" font-weight="300" letter-spacing="1.28571451" fill="#2AB4A5">
                <tspan x="77" y="349">Sector 3</tspan>
            </text>
            <text id="Sector-2" font-family="Roboto-Light, Roboto" font-size="36" font-weight="300" letter-spacing="1.28571451" fill="#2AB4A5">
                <tspan x="1167" y="411">Sector 2</tspan>
            </text>
        </g>
    </g>
</svg>