<?xml version="1.0" encoding="UTF-8"?>
<svg width="1194px" height="589px" viewBox="0 0 1194 589" version="1.1" xmlns="http://www.w3.org/2000/svg" xmlns:xlink="http://www.w3.org/1999/xlink">
    <!-- Generator: Sketch 41.2 (35397) - http://www.bohemiancoding.com/sketch -->
    <title>sochi</title>
    <desc>Created with Sketch.</desc>
    <defs></defs>
    <g id="Page-1" stroke="none" stroke-width="1" fill="none" fill-rule="evenodd">
        <g id="sochi" transform="translate(4.000000, -7.000000)">
            <path d="M1103,526 C1103,526 948.5,575.5 934,580 C919.5,584.5 890.680879,592.071678 869,591 C847.319121,589.928322 820,582 797,572 C774,562 500,437 500,437 C500,437 489,433 489,428 C489,423 498,411 500,396 C501.173296,387.200282 501.274142,370.716002 499,355 C496.725858,339.283998 494.853896,333.607374 493,325 C488.514972,304.176656 481.392295,286.690018 469,268 C456.607705,249.309982 445.147695,240.567372 431,233 C416.852305,225.432628 401,222 385,222 C377.840009,222 345.330829,225.280464 325,239 C304.669171,252.719536 293,267 287,284 C281,301 263,372 263,372 C263,372 259.098206,393.918532 252,398 C244.901794,402.081468 200,393 200,393 L30,368 C30,368 5.75205116,361.153364 2,355 C-1.75205116,348.846636 5,325 5,325 C5,325 30,238 33,228 C36,218 38.2347227,212.147916 43,205 C47.7652773,197.852084 63,183 63,183 L97,156 C97,156 108.820844,148.309567 113,148 C117.179156,147.690433 131,156 131,156 L247,224 C247,224 259.296487,232 265,232 C270.703513,232 282,224 282,224 C282,224 295.66074,217.920078 307,203 C318.33926,188.079922 328,163 328,163 L360,70 C360,70 365.593092,51.203454 372,48 C378.406908,44.796546 396,52 396,52 C396,52 432.294048,56.7868073 483,89 C533.705952,121.213193 532,118 566,159 C600,200 610,226 625,253 C640,280 638.408015,277.51052 657,312 C675.591985,346.48948 676.355232,355.025251 696,381 C703.604834,391.05528 704,396 719,411 C734,426 750,435 750,435 L802,464 C802,464 819.727668,468.968409 822,474 C824.272332,479.031591 809,508 809,508 C809,508 802,521 811,532 C815.140836,537.061022 825.792613,543.924647 835,547 C845.80463,550.608847 859,550 859,550 L934,532 C934,532 944.064932,528.870136 946,525 C947.935068,521.129864 946,515 946,515 L941,497 C941,497 939,485 943,479 C947,473 970,467 970,467 L1132,414 C1132,414 1144.45794,408.807283 1149,411 C1153.54206,413.192717 1160,429 1160,429 L1181,474 C1181,474 1186.60787,487.640417 1185,493 C1183.39213,498.359583 1172,504 1172,504 L1103,526 Z" id="Line" stroke="#505050" stroke-width="8" stroke-linecap="square"></path>
            <text id="Sector-2" font-family="Roboto-Light, Roboto" font-size="36" font-weight="300" letter-spacing="1.28571451" fill="#2AB4A5">
                <tspan x="428" y="33">Sector 2</tspan>
            </text>
            <text id="Sector-1" font-family="Roboto-Light, Roboto" font-size="36" font-weight="300" letter-spacing="1.28571451" fill="#2AB4A5">
                <tspan x="328" y="390">Sector 1</tspan>
            </text>
            <text id="Sector-3" font-family="Roboto-Light, Roboto" font-size="36" font-weight="300" letter-spacing="1.28571451" fill="#2AB4A5">
                <tspan x="914" y="409">Sector 3</tspan>
            </text>
            <path d="M1045.60262,559.130471 L1035,530" id="Line" stroke="#2AB4A5" stroke-width="10" stroke-linecap="square"></path>
        </g>
    </g>
</svg>