<?xml version="1.0" encoding="UTF-8"?>
<svg width="1087px" height="724px" viewBox="0 0 1087 724" version="1.1" xmlns="http://www.w3.org/2000/svg" xmlns:xlink="http://www.w3.org/1999/xlink">
    <!-- Generator: Sketch 41.2 (35397) - http://www.bohemiancoding.com/sketch -->
    <title>spa</title>
    <desc>Created with Sketch.</desc>
    <defs></defs>
    <g id="Page-1" stroke="none" stroke-width="1" fill="none" fill-rule="evenodd">
        <g id="spa" transform="translate(4.000000, -7.000000)">
            <path d="M280.5,201.5 L22.5,203.5 C22.5,203.5 3,208 1,192 C-1,176 25,166 25,166 C25,166 126,110 164,100 C202,90 263.139819,82.9132755 292,75 C320.860181,67.0867245 329.855737,51.6418706 350,49 C370.144263,46.3581294 392,60 411,60 C420.517471,60 470.042183,52.7477054 520,54 C569.957817,55.2522946 620,65 620,65 L943,131 C943,131 955,133 963,142 C971,151 969,162 969,162 C969,162 964.097836,175.775823 976,185 C987.902164,194.224177 1020,197 1020,197 C1020,197 1037,197 1043,206 C1049,215 1054,218 1058,238 C1062,258 1078,362 1078,362 C1078,362 1083,420 1033,417 C983,414 989,371 989,371 C989,371 992.28512,349.637011 991,337 C989.71488,324.362989 987.458193,318.092864 983,312 C978.541807,305.907136 960,298 960,298 L792,252 C792,252 774,245 754,252 C734,259 727,280 727,280 L720,306 C720,306 715.345948,321.321326 723,344 C730.654052,366.678674 747,386 747,386 L817,463 C817,463 829,474 831,486 C833,498 822,509 822,509 L789,536 C789,536 770,548 772,569 C774,590 789,610 789,610 C789,610 814.862851,640.33991 822,655 C829.137149,669.66009 829,674 826,686 C823,698 805,706 805,706 L737,726 C737,726 720,729 705,722 C690,715 672,693 672,693 C672,693 638.907112,641.892759 631,617 C623.092888,592.107241 618,523 618,523 L620,461 C620,461 620.806582,429.59141 616,415 C611.193418,400.40859 592,376 592,376 L547,319 C547,319 526.338872,298.228394 515,292 C503.661128,285.771606 476,280 476,280 L312,255 C312,255 294.9727,253.721347 292,249 C289.0273,244.278653 295,228 295,228 C295,228 301,206 298,203.5 C295,201 280.5,201.5 280.5,201.5 Z" id="Line" stroke="#505050" stroke-width="8" stroke-linecap="square"></path>
            <path d="M195,217.995279 L195.541025,187" id="Line" stroke="#2AB4A5" stroke-width="10" stroke-linecap="square"></path>
            <text id="Sector-1" font-family="Roboto-Light, Roboto" font-size="36" font-weight="300" letter-spacing="1.28571451" fill="#2AB4A5">
                <tspan x="568" y="33">Sector 1</tspan>
            </text>
            <text id="Sector-3" font-family="Roboto-Light, Roboto" font-size="36" font-weight="300" letter-spacing="1.28571451" fill="#2AB4A5">
                <tspan x="377" y="421">Sector 3</tspan>
            </text>
            <text id="Sector-2" font-family="Roboto-Light, Roboto" font-size="36" font-weight="300" letter-spacing="1.28571451" fill="#2AB4A5">
                <tspan x="811" y="379">Sector 2</tspan>
            </text>
        </g>
    </g>
</svg>