<?xml version="1.0" encoding="UTF-8"?>
<svg width="1176px" height="691px" viewBox="0 0 1176 691" version="1.1" xmlns="http://www.w3.org/2000/svg" xmlns:xlink="http://www.w3.org/1999/xlink">
    <!-- Generator: Sketch 41.2 (35397) - http://www.bohemiancoding.com/sketch -->
    <title>suzuka</title>
    <desc>Created with Sketch.</desc>
    <defs></defs>
    <g id="Page-1" stroke="none" stroke-width="1" fill="none" fill-rule="evenodd">
        <g id="suzuka" transform="translate(3.000000, 4.000000)">
            <path d="M1161.5,572.5 C1161.5,572.5 1173.5,593 1165,622 C1156.5,651 1141.52119,665.54212 1128,672 C1094.5,688 1077,651 1077,651 L1025,562 C1025,562 1014.60382,549.528539 1000,542 C985.396175,534.471461 962.915214,529.81033 954,521 C937.030451,504.230092 942,493 942,475 C942,457 942,453 932,440 C922,427 867,427 867,427 C867,427 840,421 830,406 C820,391 835,339.506914 835,339.506914 C835,339.506914 845,291 777,286 C709,281 689,307 689,307 C689,307 666.989638,329.102966 637,364 C607.010362,398.897034 579,436 579,436 C579,436 566,456 510,453 C454,450 450,420 450,420 L463,212 C463,212 466.753899,182.629503 472,170 C477.246101,157.370497 520,73 520,73 C520,73 530,37 507,19 C484,1 464,34 464,34 L387,137 C387,137 358,194 299,185 C240,176 222,128 222,128 L177,33 C177,33 160.514357,11.1428895 147,5 C133.485643,-1.14288955 122.871838,-0.00553847329 96,5 C69.1281619,10.0055385 59.9667769,15.6851239 45,24 C30.0332231,32.3148761 18,41 13,50 C8,59 -2.22859097,69.0070366 2,92 C6.22859097,114.992963 18.2337955,124.808857 29,137 C39.7662045,149.191143 70,169 70,169 C70,169 149.183545,211.198031 197,235 C244.816455,258.801969 295,281 295,281 L476,359 C476,359 510,369 530,366 C550,363 576,343 576,343 L684,245 C684,245 721.260723,217.908877 741,209 C760.739277,200.091123 792,193 792,193 C792,193 803.599741,191.573516 809,193 C811.459274,193.64962 816.358495,205.967125 824,209 C831.641505,212.032875 867,200 867,200 C867,200 881.399867,193.745418 897,198 C912.600133,202.254582 922,215 922,215 L1161.5,572.5 Z" id="Line" stroke="#505050" stroke-width="8" stroke-linecap="square"></path>
            <path d="M960,302.221343 L985.079527,284" id="Line" stroke="#2AB4A5" stroke-width="10" stroke-linecap="square"></path>
            <text id="Sector-1" font-family="Roboto-Light, Roboto" font-size="36" font-weight="300" letter-spacing="1.28571451" fill="#2AB4A5">
                <tspan x="903" y="686">Sector 1</tspan>
            </text>
            <text id="Sector-2" font-family="Roboto-Light, Roboto" font-size="36" font-weight="300" letter-spacing="1.28571451" fill="#2AB4A5">
                <tspan x="239" y="76">Sector 2</tspan>
            </text>
            <text id="Sector-3" font-family="Roboto-Light, Roboto" font-size="36" font-weight="300" letter-spacing="1.28571451" fill="#2AB4A5">
                <tspan x="514" y="244">Sector 3</tspan>
            </text>
        </g>
    </g>
</svg>