<?xml version="1.0" encoding="UTF-8"?>
<svg width="1170px" height="609px" viewBox="0 0 1170 609" version="1.1" xmlns="http://www.w3.org/2000/svg" xmlns:xlink="http://www.w3.org/1999/xlink">
    <!-- Generator: Sketch 41.2 (35397) - http://www.bohemiancoding.com/sketch -->
    <title>villeneuve</title>
    <desc>Created with Sketch.</desc>
    <defs></defs>
    <g id="Page-1" stroke="none" stroke-width="1" fill="none" fill-rule="evenodd">
        <g id="villeneuve" transform="translate(4.000000, 4.000000)">
            <path d="M779.5,289.5 L867.5,330.5 C867.5,330.5 946,364 966,374 C986,384 1013.41004,412.21702 1024,420 C1034.58996,427.78298 1040.8402,433.226131 1049,435 C1057.1598,436.773869 1080,428 1080,428 C1080,428 1121,413 1131,413 C1141,413 1152.35115,418.997138 1158,428 C1163.64885,437.002862 1162.13672,449.214245 1156,460 C1149.86328,470.785755 1138,480 1125,486 C1112,492 1001,535 1001,535 C1001,535 978.801594,541.664271 970,541 C961.198406,540.335729 940,527 940,527 C940,527 924.862196,522 918,522 C911.137804,522 894,527 894,527 C894,527 854.844119,540.609502 832,541 C809.155881,541.390498 802.675802,538.431927 777,529 C751.324198,519.568073 755.751969,518.889811 734,505 C712.248031,491.110189 702,481 698,477 C694,473 683,464 673,467 C663,470 662,476 659,486 C656,496 653,505 653,505 C653,505 648,518 632,521 C616,524 583,502 583,502 C583,502 539.272462,479.689412 492,450 C444.727538,420.310588 447,422 419,399 C391,376 342,335 342,335 C342,335 326.783089,320.862969 325,316 C323.216911,311.137031 325,300 325,300 C325,300 326.592608,285.555646 325,276 C323.407392,266.444354 321.047333,263.078888 318,258 C314.952667,252.921112 302,240 302,240 L275,215 L211,155 L158,106 C158,106 145.864313,94.0481849 139,90 C132.135687,85.9518151 99,72 99,72 L17,39 C17,39 -4,34 1,14 C6,-6 31,3 31,3 L70,17 L101,28 C101,28 114.22694,33.2523212 164,45 C213.77306,56.7476788 200.715591,51.2563397 265,69 C329.284409,86.7436603 385,107 385,107 C385,107 442,124 505,148 C568,172 669,216 669,216 L740,247 C740,247 749.906757,249.52114 754,258 C758.093243,266.47886 753.891304,271.431159 756,276 C758.108696,280.568841 766,284 766,284 L779.5,289.5 Z" id="Line" stroke="#505050" stroke-width="8" stroke-linecap="square"></path>
            <path d="M907,365.095541 L920.101166,337" id="Line" stroke="#2AB4A5" stroke-width="10" stroke-linecap="square"></path>
            <text id="Sector-1" font-family="Roboto-Light, Roboto" font-size="36" font-weight="300" letter-spacing="1.28571451" fill="#2AB4A5">
                <tspan x="993" y="604">Sector 1</tspan>
            </text>
            <text id="Sector-2" font-family="Roboto-Light, Roboto" font-size="36" font-weight="300" letter-spacing="1.28571451" fill="#2AB4A5">
                <tspan x="131" y="356">Sector 2</tspan>
            </text>
            <text id="Sector-3" font-family="Roboto-Light, Roboto" font-size="36" font-weight="300" letter-spacing="1.28571451" fill="#2AB4A5">
                <tspan x="519" y="91">Sector 3</tspan>
            </text>
        </g>
    </g>
</svg>