<?xml version="1.0" encoding="UTF-8"?>
<svg width="12px" height="12px" viewBox="0 0 12 12" version="1.1" xmlns="http://www.w3.org/2000/svg" xmlns:xlink="http://www.w3.org/1999/xlink">
    <!-- Generator: Sketch 40.3 (33839) - http://www.bohemiancoding.com/sketch -->
    <title>Shape</title>
    <desc>Created with Sketch.</desc>
    <defs></defs>
    <g id="Welcome" stroke="none" stroke-width="1" fill="none" fill-rule="evenodd">
        <g id="Desktop-HD" transform="translate(-491.000000, -285.000000)" fill="#2AB4A5">
            <g id="Info" transform="translate(405.000000, 269.000000)">
                <g id="Calendar" transform="translate(86.000000, 16.000000)">
                    <g id="Layer_1">
                        <path d="M3.75,5.625 L3.75,6.375 C3.75,6.58228125 3.58228125,6.75 3.375,6.75 L2.625,6.75 C2.41771875,6.75 2.25,6.58228125 2.25,6.375 L2.25,5.625 C2.25,5.41771875 2.41771875,5.25 2.625,5.25 L3.375,5.25 C3.58228125,5.25 3.75,5.41771875 3.75,5.625 L3.75,5.625 Z M3.375,8.25 L2.625,8.25 C2.41771875,8.25 2.25,8.41771875 2.25,8.625 L2.25,9.375 C2.25,9.58228125 2.41771875,9.75 2.625,9.75 L3.375,9.75 C3.58228125,9.75 3.75,9.58228125 3.75,9.375 L3.75,8.625 C3.75,8.41771875 3.58228125,8.25 3.375,8.25 L3.375,8.25 Z M6.375,5.25 L5.625,5.25 C5.41771875,5.25 5.25,5.41771875 5.25,5.625 L5.25,6.375 C5.25,6.58228125 5.41771875,6.75 5.625,6.75 L6.375,6.75 C6.58228125,6.75 6.75,6.58228125 6.75,6.375 L6.75,5.625 C6.75,5.41771875 6.58228125,5.25 6.375,5.25 L6.375,5.25 Z M6.375,8.25 L5.625,8.25 C5.41771875,8.25 5.25,8.41771875 5.25,8.625 L5.25,9.375 C5.25,9.58228125 5.41771875,9.75 5.625,9.75 L6.375,9.75 C6.58228125,9.75 6.75,9.58228125 6.75,9.375 L6.75,8.625 C6.75,8.41771875 6.58228125,8.25 6.375,8.25 L6.375,8.25 Z M9.375,5.25 L8.625,5.25 C8.41771875,5.25 8.25,5.41771875 8.25,5.625 L8.25,6.375 C8.25,6.58228125 8.41771875,6.75 8.625,6.75 L9.375,6.75 C9.58228125,6.75 9.75,6.58228125 9.75,6.375 L9.75,5.625 C9.75,5.41771875 9.58228125,5.25 9.375,5.25 L9.375,5.25 Z M9.375,8.25 L8.625,8.25 C8.41771875,8.25 8.25,8.41771875 8.25,8.625 L8.25,9.375 C8.25,9.58228125 8.41771875,9.75 8.625,9.75 L9.375,9.75 C9.58228125,9.75 9.75,9.58228125 9.75,9.375 L9.75,8.625 C9.75,8.41771875 9.58228125,8.25 9.375,8.25 L9.375,8.25 Z M2.625,2.25 L3.375,2.25 C3.58228125,2.25 3.75,2.08228125 3.75,1.875 L3.75,0.375 C3.75,0.16771875 3.58228125,0 3.375,0 L2.625,0 C2.41771875,0 2.25,0.16771875 2.25,0.375 L2.25,1.875 C2.25,2.08228125 2.41771875,2.25 2.625,2.25 L2.625,2.25 Z M12,3 L12,10.5 C12,11.328375 11.328375,12 10.5,12 L1.5,12 C0.671625,12 0,11.328375 0,10.5 L0,3 C0,2.171625 0.671625,1.5 1.5,1.5 L1.875,1.5 L1.875,1.875 C1.875,2.28808594 2.21153906,2.625 2.625,2.625 L3.375,2.625 C3.78846094,2.625 4.125,2.28808594 4.125,1.875 L4.125,1.5 L7.875,1.5 L7.875,1.875 C7.875,2.28808594 8.21191406,2.625 8.625,2.625 L9.375,2.625 C9.78808594,2.625 10.125,2.28808594 10.125,1.875 L10.125,1.5 L10.5,1.5 C11.328375,1.5 12,2.171625 12,3 L12,3 Z M11.25,4.5 C11.25,4.08691406 10.9138125,3.75 10.5,3.75 L1.5,3.75 C1.08653906,3.75 0.75,4.08691406 0.75,4.5 L0.75,10.5 C0.75,10.9138125 1.08653906,11.25 1.5,11.25 L10.5,11.25 C10.9138125,11.25 11.25,10.9138125 11.25,10.5 L11.25,4.5 L11.25,4.5 Z M8.625,2.25 L9.375,2.25 C9.58228125,2.25 9.75,2.08228125 9.75,1.875 L9.75,0.375 C9.75,0.16771875 9.58228125,0 9.375,0 L8.625,0 C8.41771875,0 8.25,0.16771875 8.25,0.375 L8.25,1.875 C8.25,2.08228125 8.41771875,2.25 8.625,2.25 L8.625,2.25 Z" id="Shape"></path>
                    </g>
                </g>
            </g>
        </g>
    </g>
</svg>