<?xml version="1.0" encoding="UTF-8"?>
<svg width="9px" height="9px" viewBox="0 0 9 9" version="1.1" xmlns="http://www.w3.org/2000/svg" xmlns:xlink="http://www.w3.org/1999/xlink">
    <!-- Generator: Sketch 40.3 (33839) - http://www.bohemiancoding.com/sketch -->
    <title>Ruutulippu</title>
    <desc>Created with Sketch.</desc>
    <defs></defs>
    <g id="Welcome" stroke="none" stroke-width="1" fill="none" fill-rule="evenodd">
        <g id="Desktop-HD" transform="translate(-615.000000, -272.000000)">
            <g id="Info" transform="translate(405.000000, 269.000000)">
                <g id="Ruutulippu" transform="translate(210.000000, 3.000000)">
                    <g id="BottomRow" transform="translate(4.500000, 7.500000) scale(1, -1) translate(-4.500000, -7.500000) translate(0.000000, 6.000000)">
                        <rect id="Rectangle-2-Copy" fill="#34B3A5" x="0" y="0" width="3" height="3"></rect>
                        <rect id="Rectangle-2-Copy-3" fill="#34B3A5" x="6" y="0" width="3" height="3"></rect>
                        <rect id="Rectangle-2-Copy-2" fill="#FFFFFF" x="3" y="0" width="3" height="3"></rect>
                    </g>
                    <g id="BottomRow" transform="translate(4.500000, 4.500000) scale(-1, -1) translate(-4.500000, -4.500000) translate(0.000000, 3.000000)">
                        <rect id="Rectangle-2" fill="#FFFFFF" x="0" y="0" width="3" height="3"></rect>
                        <rect id="Rectangle-2-Copy" fill="#34B3A5" x="3" y="0" width="3" height="3"></rect>
                        <rect id="Rectangle-2-Copy-2" fill="#FFFFFF" x="6" y="0" width="3" height="3"></rect>
                    </g>
                    <g id="BottomRow" transform="translate(4.500000, 1.500000) scale(1, -1) translate(-4.500000, -1.500000) ">
                        <rect id="Rectangle-2-Copy" fill="#34B3A5" x="0" y="0" width="3" height="3"></rect>
                        <rect id="Rectangle-2-Copy-3" fill="#34B3A5" x="6" y="0" width="3" height="3"></rect>
                        <rect id="Rectangle-2-Copy-2" fill="#FFFFFF" x="3" y="0" width="3" height="3"></rect>
                    </g>
                </g>
            </g>
        </g>
    </g>
</svg>